<mxfile host="app.diagrams.net" modified="2023-11-03T20:21:21.016Z" agent="Mozilla/5.0 (Windows NT 10.0; Win64; x64) AppleWebKit/537.36 (KHTML, like Gecko) Chrome/118.0.0.0 Safari/537.36" etag="3tUdmwhNAhCprx2l-IHv" version="22.0.8" type="device">
  <diagram name="Page-1" id="OnuEhw8y8EgBacjh1Lq7">
    <mxGraphModel dx="2100" dy="2329" grid="1" gridSize="10" guides="1" tooltips="1" connect="1" arrows="1" fold="1" page="1" pageScale="1" pageWidth="827" pageHeight="1169" math="0" shadow="0">
      <root>
        <mxCell id="0" />
        <mxCell id="1" parent="0" />
        <mxCell id="iHQXKwzwUvEuhShWa-Zq-1" value="" style="rounded=0;whiteSpace=wrap;html=1;" parent="1" vertex="1">
          <mxGeometry x="90" y="-1000" width="650" height="840" as="geometry" />
        </mxCell>
        <mxCell id="iHQXKwzwUvEuhShWa-Zq-2" value="" style="rounded=1;whiteSpace=wrap;html=1;" parent="1" vertex="1">
          <mxGeometry y="-1169" width="820" height="89" as="geometry" />
        </mxCell>
        <mxCell id="iHQXKwzwUvEuhShWa-Zq-3" value="" style="rounded=1;whiteSpace=wrap;html=1;" parent="1" vertex="1">
          <mxGeometry y="-80" width="820" height="80" as="geometry" />
        </mxCell>
        <mxCell id="iHQXKwzwUvEuhShWa-Zq-4" value="" style="whiteSpace=wrap;html=1;aspect=fixed;" parent="1" vertex="1">
          <mxGeometry x="100" y="-990" width="140" height="140" as="geometry" />
        </mxCell>
        <mxCell id="iHQXKwzwUvEuhShWa-Zq-5" value="" style="whiteSpace=wrap;html=1;aspect=fixed;" parent="1" vertex="1">
          <mxGeometry x="590" y="-990" width="140" height="140" as="geometry" />
        </mxCell>
        <mxCell id="iHQXKwzwUvEuhShWa-Zq-6" value="" style="whiteSpace=wrap;html=1;aspect=fixed;" parent="1" vertex="1">
          <mxGeometry x="100" y="-310" width="140" height="140" as="geometry" />
        </mxCell>
        <mxCell id="iHQXKwzwUvEuhShWa-Zq-7" value="" style="whiteSpace=wrap;html=1;aspect=fixed;" parent="1" vertex="1">
          <mxGeometry x="590" y="-310" width="140" height="140" as="geometry" />
        </mxCell>
        <mxCell id="iHQXKwzwUvEuhShWa-Zq-8" value="" style="rounded=0;whiteSpace=wrap;html=1;" parent="1" vertex="1">
          <mxGeometry x="100" y="-830" width="30" height="500" as="geometry" />
        </mxCell>
        <mxCell id="iHQXKwzwUvEuhShWa-Zq-11" value="" style="rounded=0;whiteSpace=wrap;html=1;" parent="1" vertex="1">
          <mxGeometry x="700" y="-830" width="30" height="505" as="geometry" />
        </mxCell>
        <mxCell id="iHQXKwzwUvEuhShWa-Zq-12" value="" style="rounded=0;whiteSpace=wrap;html=1;" parent="1" vertex="1">
          <mxGeometry x="270" y="-930" width="290" height="70" as="geometry" />
        </mxCell>
        <mxCell id="iHQXKwzwUvEuhShWa-Zq-14" value="" style="rounded=0;whiteSpace=wrap;html=1;" parent="1" vertex="1">
          <mxGeometry x="270" y="-300" width="290" height="70" as="geometry" />
        </mxCell>
        <mxCell id="iHQXKwzwUvEuhShWa-Zq-15" value="" style="rhombus;whiteSpace=wrap;html=1;" parent="1" vertex="1">
          <mxGeometry x="180" y="-800" width="80" height="80" as="geometry" />
        </mxCell>
        <mxCell id="iHQXKwzwUvEuhShWa-Zq-16" value="" style="rounded=0;whiteSpace=wrap;html=1;" parent="1" vertex="1">
          <mxGeometry x="280" y="-800" width="390" height="80" as="geometry" />
        </mxCell>
        <mxCell id="iHQXKwzwUvEuhShWa-Zq-17" value="" style="rounded=0;whiteSpace=wrap;html=1;" parent="1" vertex="1">
          <mxGeometry x="280" y="-700" width="390" height="80" as="geometry" />
        </mxCell>
        <mxCell id="iHQXKwzwUvEuhShWa-Zq-18" value="" style="rounded=0;whiteSpace=wrap;html=1;" parent="1" vertex="1">
          <mxGeometry x="280" y="-600" width="390" height="80" as="geometry" />
        </mxCell>
        <mxCell id="iHQXKwzwUvEuhShWa-Zq-19" value="" style="rounded=0;whiteSpace=wrap;html=1;" parent="1" vertex="1">
          <mxGeometry x="280" y="-500" width="390" height="80" as="geometry" />
        </mxCell>
        <mxCell id="iHQXKwzwUvEuhShWa-Zq-21" value="" style="rhombus;whiteSpace=wrap;html=1;" parent="1" vertex="1">
          <mxGeometry x="180" y="-700" width="80" height="80" as="geometry" />
        </mxCell>
        <mxCell id="iHQXKwzwUvEuhShWa-Zq-22" value="" style="rhombus;whiteSpace=wrap;html=1;" parent="1" vertex="1">
          <mxGeometry x="180" y="-600" width="80" height="80" as="geometry" />
        </mxCell>
        <mxCell id="iHQXKwzwUvEuhShWa-Zq-23" value="" style="rhombus;whiteSpace=wrap;html=1;" parent="1" vertex="1">
          <mxGeometry x="180" y="-500" width="80" height="80" as="geometry" />
        </mxCell>
        <mxCell id="iHQXKwzwUvEuhShWa-Zq-24" value="" style="endArrow=none;html=1;rounded=0;" parent="1" edge="1">
          <mxGeometry width="50" height="50" relative="1" as="geometry">
            <mxPoint x="580" y="-710" as="sourcePoint" />
            <mxPoint x="280" y="-710" as="targetPoint" />
          </mxGeometry>
        </mxCell>
        <mxCell id="iHQXKwzwUvEuhShWa-Zq-26" value="" style="endArrow=none;dashed=1;html=1;dashPattern=1 3;strokeWidth=2;rounded=0;entryX=1.002;entryY=0.189;entryDx=0;entryDy=0;entryPerimeter=0;" parent="1" target="iHQXKwzwUvEuhShWa-Zq-1" edge="1">
          <mxGeometry width="50" height="50" relative="1" as="geometry">
            <mxPoint x="90" y="-841" as="sourcePoint" />
            <mxPoint x="440" y="-660" as="targetPoint" />
          </mxGeometry>
        </mxCell>
        <mxCell id="iHQXKwzwUvEuhShWa-Zq-28" value="" style="endArrow=none;dashed=1;html=1;dashPattern=1 3;strokeWidth=2;rounded=0;entryX=1.003;entryY=0.813;entryDx=0;entryDy=0;entryPerimeter=0;exitX=-0.001;exitY=0.814;exitDx=0;exitDy=0;exitPerimeter=0;" parent="1" source="iHQXKwzwUvEuhShWa-Zq-1" target="iHQXKwzwUvEuhShWa-Zq-1" edge="1">
          <mxGeometry width="50" height="50" relative="1" as="geometry">
            <mxPoint x="390" y="-330" as="sourcePoint" />
            <mxPoint x="440" y="-380" as="targetPoint" />
          </mxGeometry>
        </mxCell>
        <mxCell id="iHQXKwzwUvEuhShWa-Zq-29" value="" style="endArrow=none;dashed=1;html=1;dashPattern=1 3;strokeWidth=2;rounded=0;" parent="1" edge="1">
          <mxGeometry width="50" height="50" relative="1" as="geometry">
            <mxPoint x="140" y="-320" as="sourcePoint" />
            <mxPoint x="140" y="-840" as="targetPoint" />
          </mxGeometry>
        </mxCell>
        <mxCell id="iHQXKwzwUvEuhShWa-Zq-30" value="" style="endArrow=none;dashed=1;html=1;dashPattern=1 3;strokeWidth=2;rounded=0;" parent="1" edge="1">
          <mxGeometry width="50" height="50" relative="1" as="geometry">
            <mxPoint x="690" y="-320" as="sourcePoint" />
            <mxPoint x="690" y="-840" as="targetPoint" />
          </mxGeometry>
        </mxCell>
      </root>
    </mxGraphModel>
  </diagram>
</mxfile>
